<svg width="22" height="17" viewBox="0 0 22 17" fill="none" xmlns="http://www.w3.org/2000/svg">
<path d="M18.1719 1.71093C18.1719 1.71093 18.1719 1.71093 18.1367 1.71093C16.8359 1.11328 15.3945 0.656246 13.9531 0.410152C13.918 0.410152 13.918 0.374996 13.918 0.374996L13.8828 0.410152C13.6719 0.761715 13.4961 1.14843 13.3555 1.5C12.582 1.39453 11.7734 1.32421 10.9648 1.32421C10.1562 1.32421 9.38281 1.39453 8.60938 1.5C8.46875 1.14843 8.29297 0.761715 8.08203 0.410152H8.04688C8.01172 0.410152 8.01172 0.410152 8.01172 0.410152C6.57031 0.656246 5.12891 1.11328 3.82812 1.71093C3.79297 1.71093 3.79297 1.71093 3.79297 1.71093C1.12109 5.71875 0.382812 9.62109 0.734375 13.4883C0.734375 13.4883 0.734375 13.5234 0.769531 13.5234C2.28125 14.6836 4.03906 15.5625 5.9375 16.125C5.97266 16.125 5.97266 16.125 6.00781 16.125C6.39453 15.5625 6.74609 15 7.0625 14.4023V14.3672C7.0625 14.332 7.02734 14.332 7.02734 14.2969C6.46484 14.0859 5.90234 13.8398 5.41016 13.5234C5.375 13.5234 5.375 13.5234 5.375 13.4883C5.375 13.4531 5.375 13.4531 5.41016 13.418C5.51562 13.3477 5.62109 13.2773 5.72656 13.1719C5.72656 13.1719 5.72656 13.1719 5.76172 13.1719C5.76172 13.1719 5.76172 13.1719 5.79688 13.1719C9.17188 14.7187 12.8281 14.7187 16.168 13.1719H16.2031H16.2383C16.3438 13.2773 16.4492 13.3477 16.5547 13.418C16.5898 13.4531 16.5898 13.4531 16.5898 13.4883C16.5898 13.5234 16.5898 13.5234 16.5547 13.5234C16.0273 13.8398 15.5 14.0859 14.9375 14.2969C14.9023 14.332 14.9023 14.332 14.9023 14.3672V14.4023C15.2188 15 15.5703 15.5625 15.957 16.125C15.957 16.125 15.9922 16.125 16.0273 16.125C17.8906 15.5625 19.6484 14.6836 21.1953 13.5234C21.2305 13.5234 21.2305 13.4883 21.2305 13.4883C21.6523 9.02343 20.4922 5.15625 18.1719 1.71093ZM7.55469 11.1328C6.53516 11.1328 5.69141 10.1836 5.69141 9.05859C5.69141 7.89843 6.53516 6.98437 7.55469 6.98437C8.60938 6.98437 9.41797 7.89843 9.41797 9.05859C9.41797 10.1836 8.57422 11.1328 7.55469 11.1328ZM14.4102 11.1328C13.3906 11.1328 12.582 10.1836 12.582 9.05859C12.582 7.89843 13.3906 6.98437 14.4102 6.98437C15.4648 6.98437 16.3086 7.89843 16.2734 9.05859C16.2734 10.1836 15.4648 11.1328 14.4102 11.1328Z" fill="white"/>
</svg>
