<svg width="297" height="40" viewBox="0 0 297 40" fill="none" xmlns="http://www.w3.org/2000/svg">
    <path
        d="M43.7904 39.9582L47.6742 31.727H62.0552L65.9389 39.9582H75.8312H85.4139V14.9861L93.6316 24.4707C95.0387 26.0724 97.5716 26.0724 98.9788 24.4707L102.665 20.2785L107.211 14.9861V39.9443H116.793V0.0139241H108.224C107.816 0.0139241 107.464 0.167127 107.211 0.459607L96.3192 12.9944L85.4279 0.459607C85.1746 0.1532 84.8228 0.0139241 84.4711 0.0139241H75.8452V39.6936L58.0589 2.11699C57.5101 0.919217 56.3 0.0696344 54.8365 0.0696344C53.3731 0.0696344 52.1067 0.974927 51.6142 2.21448L51.5579 2.27019L33.7997 39.9582H43.7904ZM54.8788 16.4345L57.8056 22.7716H51.9097L54.8788 16.4345Z"
        fill="white" />
    <path
        d="M138.871 0.0139241H118.341V39.9582H142.403V30.4735H127.924V24.7354H138.14V15.2507H127.924V9.4986H142.403V3.50975C142.403 1.55989 140.785 0.0139241 138.871 0.0139241Z"
        fill="white" />
    <path
        d="M9.52639 36.9777C12.6221 38.8858 16.2666 39.9861 20.1926 39.9861C22.8661 39.9861 25.4131 39.4707 27.7349 38.5376C27.8756 38.4819 28.0163 38.4262 28.157 38.3705C33.7293 36.0028 37.2613 30.5014 37.2613 24.5125V23.5237C37.2613 21.5877 35.6712 20.0139 33.7153 20.0139H30.8447L20.1785 20.0836L27.7208 27.4652C25.793 29.3733 23.1194 30.5571 20.1785 30.5571C14.2966 30.5571 9.51232 25.8356 9.51232 20C9.51232 14.1643 14.2825 9.44289 20.1785 9.44289C22.1766 9.44289 24.0341 9.98607 25.6242 10.9192C27.0032 11.7409 28.7762 11.4902 29.916 10.3621L34.4751 5.87743C32.5614 3.98328 30.2818 2.4791 27.7349 1.46239C25.4131 0.529244 22.8661 0.0139241 20.1926 0.0139241C16.2807 0.0139241 12.6221 1.1142 9.52639 3.02228C3.82744 6.54596 0.028143 12.7994 0 19.9304C0 19.9582 0 19.9721 0 20C0 20.0279 0 20.0418 0 20.0696C0.028143 27.2006 3.82744 33.454 9.52639 36.9777Z"
        fill="white" />
    <path d="M292.659 0.0696225L281.711 9.5543H296.19V3.56544C296.19 1.61558 294.572 0.0696225 292.659 0.0696225Z"
        fill="#FF4E00" />
    <path
        d="M280.008 30.5153V24.7771H289.507V15.2925H280.008V9.5543L290.956 0.0696225H270.426V40H296.191V30.5153H280.008Z"
        fill="white" />
    <path
        d="M165.255 27.5209C170.251 25.2228 173.684 20.2786 173.684 14.4847C173.74 6.49025 166.874 0 158.797 0H151.705H143.909H140.504C142.389 0 143.909 1.50418 143.909 3.37047V9.48468H151.705H158.839C161.569 9.48468 163.933 11.5877 164.031 14.3315C164.186 17.2284 161.864 19.5682 158.937 19.5682H147.441C145.527 19.5682 143.909 21.1699 143.909 23.0641V39.9443H153.492V29.0669L164.481 39.9443H177.793L165.255 27.5209Z"
        fill="white" />
    <path
        d="M268.864 9.55431V0.0835535H240.271V39.5125L222.625 2.17269C222.076 0.974918 220.866 0.125336 219.403 0.125336C217.939 0.125336 216.687 1.0167 216.18 2.27018L216.124 2.32589L203.727 28.6351C203.164 29.8189 201.968 30.5849 200.645 30.5849H194.749C188.881 30.5849 184.013 25.9331 183.956 20.1253C183.914 14.2618 188.699 9.49859 194.609 9.49859C196.593 9.49859 198.464 10.0418 200.054 10.9749C201.433 11.7827 203.206 11.5459 204.332 10.4178L208.877 5.91921C206.977 4.02506 204.684 2.52088 202.137 1.50417C199.801 0.571019 197.268 0.0556984 194.595 0.0556984C190.683 0.0556984 187.038 1.15598 183.942 3.06405C178.243 6.5738 174.444 12.8273 174.416 19.9582C174.416 19.9861 174.416 20 174.416 20.0278C174.416 20.0557 174.416 20.0696 174.416 20.0975C174.444 27.2284 178.243 33.4819 183.942 36.9916C187.038 38.8997 190.683 40 194.595 40L201.644 39.9861C205.725 39.9861 209.44 37.6462 211.157 33.9833H227.677L230.491 39.9861H240.271H240.369H249.839V24.7771H259.422V18.7465C259.422 16.8384 257.86 15.3064 255.946 15.3064H249.853V9.55431H268.864ZM215.589 24.6657L219.445 16.4902L223.286 24.6657H215.589Z"
        fill="white" />
</svg>