<svg width="92" height="90" viewBox="0 0 92 90" fill="none" xmlns="http://www.w3.org/2000/svg">
<path d="M25.6575 0.57959L1.2391 19.7804C0.604068 20.2857 0.226074 21.0436 0.226074 21.8461V87.3547C0.226074 88.8111 1.43565 90 2.91739 90H64.6816C65.2864 90 65.8912 89.7919 66.3599 89.4204L83.415 76.0155L90.7783 70.2196C91.4133 69.7143 91.7913 68.9564 91.7913 68.1539V2.64531C91.7913 1.1889 90.5817 0 89.1 0H27.3358C26.731 0 26.1262 0.208058 25.6575 0.57959Z" fill="#FF4E00"/>
<path d="M25.6575 0.57959L1.2391 19.7804C0.604068 20.2857 0.226074 21.0436 0.226074 21.8461V87.3547C0.226074 88.8111 1.43565 90 2.91739 90H64.6816C65.2864 90 65.8912 89.7919 66.3599 89.4204L83.415 76.0155L90.7783 70.2196C91.4133 69.7143 91.7913 68.9564 91.7913 68.1539V2.64531C91.7913 1.1889 90.5817 0 89.1 0H27.3358C26.731 0 26.1262 0.208058 25.6575 0.57959Z" fill="#FF4E00"/>
<path d="M32.9302 19.2899H26.3833V25.7249H32.9302V19.2899Z" fill="white"/>
<path d="M32.9302 19.2899H26.3833V25.7249H32.9302V19.2899Z" fill="white"/>
<path d="M39.4769 9.64497H32.9301V16.0799H39.4769V9.64497Z" fill="white"/>
<path d="M39.4769 9.64497H32.9301V16.0799H39.4769V9.64497Z" fill="white"/>
<path d="M46.0238 19.2899H39.4769V25.7249H46.0238V19.2899Z" fill="white"/>
<path d="M46.0238 19.2899H39.4769V25.7249H46.0238V19.2899Z" fill="white"/>
<path d="M52.5555 9.64497H46.0087V16.0799H52.5555V9.64497Z" fill="white"/>
<path d="M52.5555 9.64497H46.0087V16.0799H52.5555V9.64497Z" fill="white"/>
<path d="M70.548 57.8699L77.7147 52.2375C78.3497 51.7322 78.7277 50.9743 78.7277 50.1718V41.2401C78.7277 39.7837 77.5182 38.5948 76.0364 38.5948H70.548V57.8699Z" fill="white"/>
<path d="M70.548 57.8699L77.7147 52.2375C78.3497 51.7322 78.7277 50.9743 78.7277 50.1718V41.2401C78.7277 39.7837 77.5182 38.5948 76.0364 38.5948H70.548V57.8699Z" fill="white"/>
<path d="M65.6493 9.64497H59.1024V16.0799H65.6493V9.64497Z" fill="white"/>
<path d="M65.6493 9.64497H59.1024V16.0799H65.6493V9.64497Z" fill="white"/>
<path d="M58.1952 76.5654L64.6211 71.5125C65.2561 71.0073 65.6341 70.2493 65.6341 69.4468V42.6222L25.854 75.4359L27.2904 76.5654C27.7742 76.9369 28.3639 77.145 28.9687 77.145H56.5169C57.1217 77.145 57.7264 76.9518 58.1952 76.5654Z" fill="white"/>
<path d="M65.6341 32.145H51.3005L19.8514 58.0928V69.9075L65.6341 32.145Z" fill="white"/>
<path d="M19.8514 34.7903V46.2632L36.967 32.145H22.5428C21.061 32.145 19.8514 33.3339 19.8514 34.7903Z" fill="white"/>
<path d="M58.1952 76.5654L64.6211 71.5125C65.2561 71.0073 65.6341 70.2493 65.6341 69.4468V42.6222L25.854 75.4359L27.2904 76.5654C27.7742 76.9369 28.3639 77.145 28.9687 77.145H56.5169C57.1217 77.145 57.7264 76.9518 58.1952 76.5654Z" fill="white"/>
<path d="M65.6341 32.145H51.3005L19.8514 58.0928V69.9075L65.6341 32.145Z" fill="white"/>
<path d="M19.8514 34.7903V46.2632L36.967 32.145H22.5428C21.061 32.145 19.8514 33.3339 19.8514 34.7903Z" fill="white"/>
<path d="M59.1024 19.2899H52.5555V25.7249H59.1024V19.2899Z" fill="white"/>
<path d="M59.1024 19.2899H52.5555V25.7249H59.1024V19.2899Z" fill="white"/>
</svg>
