<svg width="392" height="62" viewBox="0 0 392 62" fill="none" xmlns="http://www.w3.org/2000/svg">
<path d="M16.3934 1.05219L0.653008 14.1203C0.24366 14.4642 0 14.9801 0 15.5263V60.1117C0 61.1029 0.779711 61.9121 1.73486 61.9121H41.5489C41.9387 61.9121 42.3286 61.7705 42.6307 61.5176L58.3809 48.4596C58.7903 48.1157 59.0339 47.5999 59.0339 47.0537V2.45812C59.0339 1.46689 58.2542 0.657715 57.2991 0.657715H17.4753C17.0854 0.657715 16.6956 0.79932 16.3934 1.05219Z" fill="#FF4E00"/>
<path d="M21.0815 13.7866H16.8613V18.1663H21.0815V13.7866Z" fill="white"/>
<path d="M25.3017 7.22217H21.0815V11.6018H25.3017V7.22217Z" fill="white"/>
<path d="M29.5219 13.7866H25.3018V18.1663H29.5219V13.7866Z" fill="white"/>
<path d="M33.7324 7.22217H29.5122V11.6018H33.7324V7.22217Z" fill="white"/>
<path d="M45.3306 40.044L49.9504 36.2105C50.3597 35.8666 50.6034 35.3508 50.6034 34.8046V28.7257C50.6034 27.7345 49.8237 26.9253 48.8685 26.9253H45.3306V40.044Z" fill="white"/>
<path d="M42.1728 7.22217H37.9526V11.6018H42.1728V7.22217Z" fill="white"/>
<path d="M37.3678 52.7684L41.51 49.3294C41.9194 48.9855 42.163 48.4697 42.163 47.9235V29.6665L16.5203 51.9997L17.4462 52.7684C17.7581 53.0213 18.1382 53.1629 18.528 53.1629H36.286C36.6758 53.1629 37.0657 53.0314 37.3678 52.7684Z" fill="white"/>
<path d="M42.163 22.5356H32.9234L12.6509 40.1958V48.237L42.163 22.5356Z" fill="white"/>
<path d="M12.6509 24.3361V32.1446L23.6838 22.5356H14.3857C13.4306 22.5356 12.6509 23.3448 12.6509 24.3361Z" fill="white"/>
<path d="M37.9526 13.7866H33.7324V18.1663H37.9526V13.7866Z" fill="white"/>
<path d="M115.436 54.2047L119.696 44.7373H135.446L139.705 54.2047H150.533H161.03V25.5195L170.036 36.413C171.585 38.2437 174.344 38.2437 175.893 36.413L179.928 31.5984L184.899 25.5195V54.1946H195.415V8.31445H186.02C185.581 8.31445 185.191 8.4864 184.918 8.8303L172.979 23.2235L161.04 8.8303C160.767 8.4864 160.377 8.31445 159.987 8.31445H150.533V53.9012L131.079 10.7217C130.475 9.34615 129.15 8.36503 127.541 8.36503C125.943 8.36503 124.559 9.39672 124.004 10.833L123.945 10.8937L104.491 54.2047H115.436ZM127.6 27.1884L130.806 34.471H124.345L127.6 27.1884Z" fill="white"/>
<path d="M219.625 8.31445H197.131V54.2047H223.495V43.3011H207.627V36.7063H218.826V25.8128H207.627V19.2181H223.495V12.33C223.495 10.0946 221.73 8.31445 219.625 8.31445Z" fill="white"/>
<path d="M77.903 50.7758C81.2947 52.9707 85.2908 54.235 89.5792 54.235C92.5031 54.235 95.2906 53.6484 97.8441 52.5762C98.0001 52.5155 98.156 52.4447 98.3022 52.3739C104.403 49.6531 108.282 43.3415 108.282 36.4534V35.3105C108.282 33.0853 106.538 31.2747 104.394 31.2747H101.255L89.5792 31.3455L97.8441 39.8317C95.7291 42.0266 92.8052 43.3921 89.5792 43.3921C83.1271 43.3921 77.903 37.9605 77.903 31.2747C77.903 24.5889 83.1368 19.1574 89.5889 19.1574C91.7721 19.1574 93.8091 19.7744 95.5635 20.8566C97.0741 21.7973 99.0137 21.5141 100.261 20.2194L105.242 15.0508C103.156 12.8762 100.641 11.1466 97.8539 9.97326C95.3003 8.9011 92.5128 8.31445 89.5889 8.31445C85.3005 8.31445 81.2947 9.57879 77.9128 11.7737C71.6653 15.8094 67.4939 23.0009 67.4744 31.1938C67.4744 31.2242 67.4744 31.2444 67.4744 31.2747C67.4744 31.3051 67.4744 31.3253 67.4744 31.3557C67.4939 39.5586 71.6556 46.7401 77.903 50.7758Z" fill="white"/>
<path d="M388.131 8.375L376.143 19.2685H392V12.3905C392 10.1552 390.236 8.375 388.131 8.375Z" fill="#FF4E00"/>
<path d="M374.271 43.3616V36.7669H384.69V25.8633H374.271V19.2685L386.269 8.375H363.774V54.2652H392V43.3616H374.271Z" fill="white"/>
<path d="M248.533 39.9228C254.001 37.2828 257.763 31.6085 257.763 24.9531C257.821 15.7791 250.297 8.31445 241.457 8.31445H233.689H225.152H221.419C223.475 8.31445 225.152 10.0441 225.152 12.1884V19.2181H233.689H241.506C244.488 19.2181 247.091 21.6253 247.198 24.7811C247.364 28.1088 244.82 30.7993 241.613 30.7993H229.011C226.916 30.7993 225.142 32.6301 225.142 34.8149V54.2047H235.639V41.7029L247.685 54.2047H262.276L248.533 39.9228Z" fill="white"/>
<path d="M362.059 19.2787V8.39537H330.734V53.699L311.397 10.8027C310.793 9.42706 309.467 8.45606 307.859 8.45606C306.261 8.45606 304.877 9.48775 304.321 10.924L304.263 10.9847L290.686 41.2175C290.072 42.5829 288.756 43.4528 287.314 43.4528H280.862C274.429 43.4528 269.088 38.1123 269.039 31.4265C268.991 24.6901 274.234 19.2181 280.716 19.2181C282.899 19.2181 284.936 19.8351 286.68 20.9173C288.191 21.8479 290.131 21.5748 291.378 20.2801L296.359 15.1115C294.273 12.947 291.768 11.2072 288.981 10.0441C286.427 8.9719 283.64 8.38525 280.716 8.38525C276.427 8.38525 272.431 9.64959 269.039 11.8445C262.792 15.8802 258.63 23.0616 258.601 31.2545C258.601 31.2849 258.601 31.3051 258.601 31.3354C258.601 31.3658 258.601 31.386 258.601 31.4163C258.63 39.6092 262.792 46.7906 269.039 50.8264C272.431 53.0213 276.427 54.2856 280.716 54.2856L288.445 54.2654C292.918 54.2654 296.982 51.5749 298.873 47.3773H316.933L320.023 54.2654H330.734H330.841H341.221V36.767H351.718V29.8385C351.718 27.6537 350.013 25.8836 347.907 25.8836H341.221V19.2889H362.059V19.2787ZM303.698 36.6355L307.928 27.2491L312.138 36.6355H303.698Z" fill="white"/>
</svg>
