<svg width="18" height="19" viewBox="0 0 18 19" fill="none" xmlns="http://www.w3.org/2000/svg">
<path d="M4.46484 5.41796C4.5 5.69921 4.74609 5.875 5.02734 5.875H5.58984C5.94141 5.875 6.22266 5.59375 6.15234 5.24218C6.04688 4.25781 5.58984 3.34375 4.88672 2.64062C4.35938 2.11328 4.04297 1.44531 3.9375 0.742184C3.90234 0.460934 3.69141 0.249996 3.375 0.249996H2.8125C2.46094 0.249996 2.21484 0.566402 2.25 0.882809C2.39062 2.00781 2.88281 3.0625 3.65625 3.87109C4.07812 4.29296 4.35938 4.82031 4.46484 5.41796ZM8.40234 5.41796C8.4375 5.69921 8.68359 5.875 8.96484 5.875H9.52734C9.87891 5.875 10.1602 5.59375 10.0898 5.24218C9.98438 4.25781 9.52734 3.34375 8.82422 2.64062C8.29688 2.11328 7.98047 1.44531 7.875 0.742184C7.83984 0.460934 7.62891 0.249996 7.3125 0.249996H6.75C6.39844 0.249996 6.11719 0.566402 6.1875 0.882809C6.32812 2.00781 6.82031 3.0625 7.59375 3.87109C8.01562 4.29296 8.29688 4.82031 8.40234 5.41796ZM14.0625 7H1.125C0.492188 7 0 7.52734 0 8.125V14.875C0 16.7383 1.51172 18.25 3.375 18.25H10.125C11.9883 18.25 13.5 16.7383 13.5 14.875H14.0625C16.207 14.875 18 13.1172 18 10.9375C18 8.79296 16.207 7 14.0625 7ZM14.0625 12.625H13.5V9.25H14.0625C14.9766 9.25 15.75 10.0234 15.75 10.9375C15.75 11.8867 14.9766 12.625 14.0625 12.625Z" fill="white"/>
</svg>
