<svg width="80" height="80" viewBox="0 0 80 80" fill="none" xmlns="http://www.w3.org/2000/svg">
<rect width="80" height="80" fill="#FF004E"/>
<path d="M51.1811 57.8464L49.661 56.3263C49.0363 55.7015 48.0159 55.7015 47.412 56.3263C43.0391 60.6992 33.6476 65.6761 23.09 58.3045C22.4653 57.8047 21.549 57.8672 20.9868 58.4295L15.4685 63.9477C14.8438 64.5724 14.8438 65.5928 15.4685 66.1967C15.7809 66.509 16.1974 66.6548 16.593 66.6548C16.9887 66.6548 17.4051 66.509 17.7175 66.1967L22.2987 61.6363C30.4824 66.863 41.1233 66.0509 48.474 59.6789L48.9113 60.1162C49.2029 60.4077 49.6193 60.5743 50.0358 60.5743C50.4523 60.5743 50.8688 60.4077 51.1603 60.1162C51.4518 59.8246 51.6184 59.4082 51.6184 58.9917C51.66 58.5544 51.4935 58.1587 51.1811 57.8464Z" fill="white"/>
<path d="M59.552 17.5526C53.4715 11.4721 43.6011 11.4721 37.4581 17.6151L26.0467 29.0264C25.8177 29.2555 25.6511 29.6511 25.6511 30.0884C25.6511 30.6923 25.9843 31.2337 26.5465 31.5253C26.7547 31.6294 26.9838 31.671 27.2337 31.6919C27.671 31.6919 28.1083 31.5045 28.4206 31.1921L28.7954 30.8173L30.6696 32.6914C31.2526 33.2745 32.1689 33.3578 32.8144 32.8788C33.5849 32.2749 33.6474 31.1505 32.981 30.4841L31.0652 28.5683L33.335 26.2569L35.2508 28.1727C35.5423 28.4642 35.9588 28.6308 36.3753 28.6308C36.6251 28.6308 36.8542 28.5891 37.0833 28.4642C37.6455 28.1727 37.9787 27.6313 37.9787 27.0274C37.9787 26.6109 37.8121 26.1944 37.5206 25.9029L35.6048 23.9871L37.9162 21.6757L39.7903 23.5498C40.3734 24.1329 41.2896 24.2162 41.9352 23.7372C42.7057 23.1333 42.7681 22.0089 42.1018 21.3425L40.2068 19.4476C42.4974 17.3444 45.4544 16.1782 48.5779 16.1782C51.8889 16.1782 54.9916 17.4693 57.3239 19.8016C59.6561 22.1338 60.9472 25.2365 60.9472 28.5475C60.9472 31.6919 59.8019 34.6488 57.6779 36.9186L52.701 32.0042C52.4095 31.7127 51.993 31.5461 51.5765 31.5461C51.3475 31.5461 51.0976 31.5877 50.8894 31.6919C49.8482 32.2125 49.7024 33.5243 50.4521 34.274L55.4081 39.23L53.0967 41.5415L48.1406 36.5854C47.5159 35.9607 46.5164 35.9607 45.8917 36.5854C45.6001 36.877 45.4336 37.2934 45.4336 37.7099C45.4336 38.1264 45.6001 38.5429 45.8917 38.8344L50.8477 43.7904L48.5363 46.081L43.5802 41.125C42.9555 40.5003 41.956 40.5003 41.3313 41.125C41.0398 41.4165 40.8732 41.833 40.8732 42.2495C40.8732 42.6659 41.0398 43.0824 41.3313 43.3739L46.2873 48.33L42.0809 52.5364C39.7487 54.8686 36.646 56.1597 33.335 56.1597C30.024 56.1597 26.9213 54.8686 24.5891 52.5364C20.4452 48.3924 19.7788 41.8538 23.0065 36.9603C23.5687 36.0857 24.7973 35.9607 25.5261 36.7104L39.7903 50.9746C40.3734 51.5576 41.3313 51.6201 41.956 51.1203C42.5391 50.6414 42.7265 49.8084 42.31 49.0796C42.2475 48.9547 42.1434 48.8506 42.0393 48.7464L27.9209 34.5864C25.9426 32.6081 22.6733 32.733 20.8616 34.8987C20.1536 35.7317 19.5289 36.5646 19.1957 37.231C17.9463 39.709 17.5507 42.7284 17.8422 45.4563C18.217 48.9755 19.7996 52.2656 22.2985 54.7645C25.3387 57.8047 29.316 59.3249 33.3142 59.3249C37.3123 59.3249 41.2896 57.8047 44.3299 54.7645L59.5312 39.5632C65.6325 33.5035 65.6325 23.6331 59.552 17.5526Z" fill="white"/>
</svg>
